HIERARCHY
ROOT Hips
{
  OFFSET -125.086 92.215 135.881
  CHANNELS 6 Xposition Yposition Zposition Zrotation Xrotation Yrotation
  JOINT LeftUpLeg
  {
    OFFSET 8.64259 1.95398 -2.38835
    CHANNELS 3 Zrotation Xrotation Yrotation
    JOINT LeftLeg
    {
      OFFSET 43.7702 0 0
      CHANNELS 3 Zrotation Xrotation Yrotation
      JOINT LeftFoot
      {
        OFFSET 40.6238 0 0
        CHANNELS 3 Zrotation Xrotation Yrotation
        JOINT LeftToeBase
        {
          OFFSET 12.7242 0 0
          CHANNELS 3 Zrotation Xrotation Yrotation
          End Site
          {
            OFFSET 0 0 0
          }
        }
      }
    }
  }
  JOINT RightUpLeg
  {
    OFFSET -8.2249 1.95398 -2.59336
    CHANNELS 3 Zrotation Xrotation Yrotation
    JOINT RightLeg
    {
      OFFSET 43.5653 0 0
      CHANNELS 3 Zrotation Xrotation Yrotation
      JOINT RightFoot
      {
        OFFSET 40.6238 0 0
        CHANNELS 3 Zrotation Xrotation Yrotation
        JOINT RightToeBase
        {
          OFFSET 12.7242 0 0
          CHANNELS 3 Zrotation Xrotation Yrotation
          End Site
          {
            OFFSET 0 0 0
          }
        }
      }
    }
  }
  JOINT Spine
  {
    OFFSET 0.165834 0.87714 6.61349
    CHANNELS 3 Zrotation Xrotation Yrotation
    JOINT Spine1
    {
      OFFSET 7.38963 1.71661e-005 0
      CHANNELS 3 Zrotation Xrotation Yrotation
      JOINT Spine2
      {
        OFFSET 11.9445 1.14441e-005 0
        CHANNELS 3 Zrotation Xrotation Yrotation
        JOINT Spine3
        {
          OFFSET 14.7254 4.19617e-005 0
          CHANNELS 3 Zrotation Xrotation Yrotation
          JOINT Spine4
          {
            OFFSET 10.9679 0 0
            CHANNELS 3 Zrotation Xrotation Yrotation
            JOINT RightShoulder
            {
              OFFSET 2.46616 -1.6653 3.69651
              CHANNELS 3 Zrotation Xrotation Yrotation
              JOINT RightArm
              {
                OFFSET 13.0012 0 0
                CHANNELS 3 Zrotation Xrotation Yrotation
                JOINT RightForeArm
                {
                  OFFSET 28.7848 1.52588e-005 0
                  CHANNELS 3 Zrotation Xrotation Yrotation
                  JOINT RightHand
                  {
                    OFFSET 26.5688 1.52588e-005 0
                    CHANNELS 3 Zrotation Xrotation Yrotation
                    End Site
                    {
                      OFFSET 0 0 0
                    }
                  }
                }
              }
            }
            JOINT LeftShoulder
            {
              OFFSET 2.38034 -1.29275 -3.7523
              CHANNELS 3 Zrotation Xrotation Yrotation
              JOINT LeftArm
              {
                OFFSET 16.3182 6.10352e-005 0
                CHANNELS 3 Zrotation Xrotation Yrotation
                JOINT LeftForeArm
                {
                  OFFSET 27.0901 0 0
                  CHANNELS 3 Zrotation Xrotation Yrotation
                  JOINT LeftHand
                  {
                    OFFSET 24.5451 1.52588e-005 0
                    CHANNELS 3 Zrotation Xrotation Yrotation
                    End Site
                    {
                      OFFSET 0 0 0
                    }
                  }
                }
              }
            }
            JOINT Neck
            {
              OFFSET 5.0226 -0.0266342 0
              CHANNELS 3 Zrotation Xrotation Yrotation
              JOINT Head
              {
                OFFSET 6.69363 2.86102e-005 0
                CHANNELS 3 Zrotation Xrotation Yrotation
                End Site
                {
                  OFFSET 0 0 0
                }
              }
            }
          }
        }
      }
    }
  }
}
MOTION
Frames:	10
Frame Time:	0.0416667
-141.569 91.3675 135.582 98.0778 49.5936 83.2955 179.487 16.2373 85.3624 -36.9029 20.7681 6.57521 63.5742 5.74362 12.8852 43.4294 -1.23465 1.0483 170.914 14.8525 83.9267 -93.9391 -17.29 -3.24602 43.0916 5.4131 15.8502 64.8941 -4.97101 3.07105 0.215076 8.29265 -89.7897 10.2889 0.524757 0.374174 -1.38201 0.540724 0.350718 -23.9173 0.388051 0.51459 -3.90469 0.388036 0.514584 111.795 -56.9859 -68.3973 27.4873 1.96111 -12.7519 4.27477 -29.4215 -4.24428 -8.42982 -0.347872 -0.305836 -78.4119 -48.3478 95.9868 -39.3253 -7.3475 -28.92 4.76916 51.254 -0.0627056 0.174512 -0.228489 -11.1048 -0.385474 -1.33875 -3.86489 -14.8727 -1.68878 9.01208 
-137.006 92.279 130.463 100.256 49.8974 84.3236 -178.664 9.47673 87.8928 -36.3878 22.6948 7.68221 66.6739 8.07366 14.3649 44.4008 -1.29751 1.58286 169.532 26.4486 89.2962 -103.727 -15.127 -2.97751 49.1234 2.72254 13.8086 66.1317 -4.66367 5.07979 -0.00498214 8.13452 -90.0844 10.605 -0.0486955 -0.162934 -1.06599 -0.055822 -0.160646 -23.6011 0.00250832 -0.170042 -3.58846 0.00253397 -0.170034 111.576 -56.9617 -68.7048 28.4456 3.23886 -10.5788 3.64668 -26.5671 -3.97893 -10.997 -0.389336 -1.11493 -78.449 -47.5702 95.9192 -36.9693 -2.67572 -29.9537 6.35953 42.7722 -9.10409 3.50195 -0.462204 -11.4909 -2.65422 -0.39802 -6.03972 -16.3538 -0.810027 10.041 
-132.734 92.7808 125.689 101.937 49.8577 84.5362 -176.823 2.97283 90.0465 -34.4773 24.6145 7.99474 68.4036 9.92912 15.322 45.9631 -1.3635 2.84193 168.854 33.6997 91.9884 -94.6135 -12.8064 -1.96954 57.2766 0.451633 18.2885 59.2101 -3.97281 4.47535 -0.242212 8.07672 -90.2495 10.7191 -0.597285 -0.441196 -0.951738 -0.616108 -0.414491 -23.487 -0.437093 -0.600312 -3.47432 -0.437068 -0.600308 111.219 -56.6988 -69.1738 29.0455 4.93425 -8.78118 2.61883 -25.4889 -4.03839 -11.2751 -0.421688 -0.865004 -78.1001 -47.6257 96.4659 -34.0592 0.47197 -31.7813 9.93243 39.2126 -20.3744 3.50756 -0.534601 -13.0008 -2.55874 0.482508 -7.87812 -16.9382 0.00705358 12.0304 
-128.519 93.3599 121.207 102.285 51.0411 85.6975 -174.599 -1.47226 93.3303 -32.5103 28.2613 8.33076 68.1954 10.4582 15.0486 47.9407 -1.3489 5.43805 169.527 33.2577 92.6099 -66.6693 -12.4391 1.29593 59.0492 0.119683 17.2326 60.55 -4.73966 1.26539 -0.353632 8.03046 -90.4607 10.8085 -0.91683 -0.831008 -0.862386 -0.952469 -0.789867 -23.3968 -0.624681 -1.06812 -3.38412 -0.624684 -1.06812 112.181 -57.492 -67.9321 28.0303 6.405 -8.01825 2.27034 -23.5043 -3.56116 -11.7367 -0.458087 -0.666049 -77.7647 -48.2474 96.9908 -32.5977 2.8879 -35.0582 15.3307 41.4564 -30.0881 1.5188 -0.309119 -10.835 -2.06814 0.350497 -8.10551 -16.2574 -0.0382625 12.4515 
-123.982 93.6846 116.653 101.094 53.4758 84.5632 -174.099 -5.60637 92.7809 -29.8693 29.367 8.07451 66.2932 8.85731 11.5444 51.4451 -1.4326 6.00529 174.319 26.1922 88.5521 -27.7904 -6.94727 1.63875 52.0028 2.15319 14.7824 45.3949 -2.62772 -5.68643 -0.497891 7.87042 -90.2874 11.1316 -1.12449 -0.463808 -0.538921 -1.14382 -0.41387 -23.0764 -0.933117 -0.780332 -3.06375 -0.9331 -0.78034 112.252 -57.3254 -67.8034 27.6525 6.74392 -6.49187 2.6463 -23.2514 -2.39932 -11.5863 -0.40173 -1.22552 -78.1834 -47.707 96.3351 -33.8107 5.103 -37.3695 18.4451 42.3179 -34.2183 -0.211861 -0.233422 -12.5141 -1.42789 -0.343942 -7.84656 -16.7842 -0.650907 11.3938 
-118.635 93.2334 111.771 102.636 56.243 82.6317 -173.709 -9.13875 94.0768 -32.232 30.2183 10.3468 66.2941 8.27123 6.84944 54.8709 -1.33405 7.77421 176.437 19.6449 87.2714 -9.31714 1.51782 0.305395 51.9515 2.22482 19.6087 40.4772 -1.87699 -7.79913 -0.731751 7.87825 -90.2932 11.115 -1.59264 -0.429574 -0.554994 -1.60999 -0.359068 -23.0959 -1.3899 -0.888453 -3.08322 -1.38988 -0.888445 112.758 -56.9582 -67.022 27.8053 7.43906 -4.58942 1.67139 -23.3587 -3.65145 -10.0564 -0.290875 -1.87207 -78.4721 -46.8187 95.8731 -34.2547 7.0356 -37.2008 14.5865 38.4451 -32.3907 -1.83191 -0.139604 -14.397 -1.06004 -0.621917 -7.70532 -17.2147 -0.948394 11.2507 
-112.048 92.4639 106.229 103.784 57.2024 81.8567 -175.077 -10.2235 95.8009 -39.4335 29.641 12.4885 61.1009 4.33024 0.526833 63.2728 -1.53518 7.51398 176.245 19.8558 88.7649 -16.4687 -4.00981 0.727884 49.0825 3.72612 15.4409 35.6102 -0.790657 -7.30138 -0.971714 7.85338 -90.5073 11.1602 -2.1697 -0.797965 -0.509101 -2.20269 -0.701669 -23.0533 -1.82958 -1.41329 -3.04069 -1.82954 -1.4133 113.53 -57.1263 -65.9568 26.4319 7.8515 -3.76789 1.36117 -23.6932 -4.55807 -11.776 -0.515656 -0.0949187 -78.6167 -45.9421 95.6297 -34.9623 8.5247 -33.3046 1.27585 25.6766 -19.5959 -1.82887 -0.143152 -15.4264 -0.313071 -0.0545459 -6.90887 -18.3805 -0.728529 12.5327 
-105.478 91.865 100.425 102.993 55.9698 84.4307 -178.064 -5.19661 97.745 -50.4981 22.0414 11.3865 47.2927 -2.76849 -9.15462 67.4084 -3.42443 0.040941 176.327 22.0199 91.676 -29.2311 -8.73684 1.40571 51.9439 3.59572 11.8422 35.9471 -1.0173 -2.57267 -0.976837 7.76469 -90.9031 11.3267 -2.36464 -1.56239 -0.342857 -2.43111 -1.45678 -22.8814 -1.78587 -2.20078 -2.86878 -1.78587 -2.20078 113.036 -56.8403 -66.6051 26.2342 9.08486 -3.87653 0.907357 -24.4138 -4.12402 -11.7204 -0.680245 1.61523 -78.3203 -46.4636 96.109 -38.5283 4.20918 -26.9383 0.356372 30.6604 -9.85823 -5.02801 0.179355 -15.8352 0.31165 0.730922 -6.82885 -18.6763 -0.103827 13.6594 
-99.5775 92.0938 95.157 103.583 54.993 84.385 177.369 3.72085 95.2308 -66.4995 18.9802 9.97455 47.8479 -1.94166 -2.87668 62.6632 -0.496063 12.7132 176.01 19.5477 93.0286 -36.2906 -6.59918 1.74922 60.7925 1.10041 13.6141 29.639 0.183122 -3.5224 -0.716125 7.86155 -91.0745 11.1297 -1.92393 -1.94902 -0.541128 -2.00784 -1.86247 -23.07 -1.24944 -2.43692 -3.05738 -1.24942 -2.43692 112.73 -56.4652 -66.9751 26.7143 8.44465 -6.10312 1.23549 -23.3073 -3.91271 -12.9912 -0.769291 1.77019 -78.1012 -47.1428 96.4603 -43.9674 -3.24728 -25.2029 2.70219 49.2773 -0.284446 -1.7745 -0.140481 -13.8104 1.35308 0.307634 -6.65814 -18.2978 -0.24637 12.1143 
-93.8704 93.3832 90.0146 103.535 51.9759 82.4316 178.557 12.7379 91.519 -68.2514 11.1808 6.50751 55.4748 3.36113 2.25577 61.9889 -0.428086 13.6313 176.887 14.3597 92.6071 -36.8592 -8.14319 -0.110049 64.6933 -0.0874969 13.0261 32.1809 -0.421518 -1.57678 -0.219781 7.89082 -90.8508 11.0846 -0.832348 -1.61412 -0.587074 -0.90257 -1.57593 -23.1146 -0.308849 -1.78959 -3.10192 -0.308833 -1.78959 112.216 -56.1778 -67.6607 26.728 6.02639 -8.33087 1.33608 -22.676 -7.20476 -16.3958 -1.03731 2.1707 -77.9795 -47.8546 96.6556 -45.5118 -9.4849 -22.0484 7.69468 56.4456 0.0862054 -0.0807156 -0.261188 -12.8373 0.215094 -0.283785 -6.29776 -18.4899 -0.764762 10.5692 
